<?xml version="1.0" encoding="iso-8859-1"?>
<!-- Generator: Adobe Illustrator 16.0.0, SVG Export Plug-In . SVG Version: 6.00 Build 0)  -->
<!DOCTYPE svg PUBLIC "-//W3C//DTD SVG 1.1//EN" "http://www.w3.org/Graphics/SVG/1.1/DTD/svg11.dtd">
<svg version="1.1" id="Capa_1" xmlns="http://www.w3.org/2000/svg" xmlns:xlink="http://www.w3.org/1999/xlink" x="0px" y="0px"
	 width="551.89px" height="551.89px" viewBox="0 0 551.89 551.89" style="enable-background:new 0 0 551.89 551.89;"
	 xml:space="preserve">
<g>
	<g>
		<path d="M94.499,535.901c52.188,0,94.496-42.308,94.496-94.496c0-0.024-0.003-0.053-0.003-0.077h0.003V134.753H492.51v218.921
			c-10.86-4.352-22.699-6.769-35.113-6.769c-52.188,0-94.496,42.308-94.496,94.496c0,52.188,42.305,94.499,94.493,94.499
			c52.188,0,94.496-42.308,94.496-94.496c0-0.024-0.004-0.053-0.004-0.077h0.004V134.753V15.988h-59.383H188.995h-59.385v118.765
			v218.921c-10.86-4.352-22.699-6.769-35.114-6.769C42.307,346.906,0,389.214,0,441.402C0,493.59,42.311,535.901,94.499,535.901z"/>
	</g>
</g>
<g>
</g>
<g>
</g>
<g>
</g>
<g>
</g>
<g>
</g>
<g>
</g>
<g>
</g>
<g>
</g>
<g>
</g>
<g>
</g>
<g>
</g>
<g>
</g>
<g>
</g>
<g>
</g>
<g>
</g>
</svg>
